<?xml version="1.0" standalone="no"?>
<!DOCTYPE svg PUBLIC "-//W3C//DTD SVG 20010904//EN"
 "http://www.w3.org/TR/2001/REC-SVG-20010904/DTD/svg10.dtd">
<svg version="1.0" xmlns="http://www.w3.org/2000/svg"
 width="1408.000000pt" height="768.000000pt" viewBox="0 0 1408.000000 768.000000"
 preserveAspectRatio="xMidYMid meet">

<g transform="translate(0.000000,768.000000) scale(0.100000,-0.100000)"
fill="#000000" stroke="none">
<path d="M4690 5465 l0 -805 631 2 630 3 2 170 2 170 353 3 c193 1 352 0 352
-4 0 -3 -26 -38 -58 -77 -220 -272 -582 -727 -582 -732 0 -3 159 -5 353 -5
l354 0 50 63 c340 423 923 1157 923 1161 0 3 -486 6 -1080 6 l-1080 0 0 -180
0 -180 -130 0 -130 0 0 310 0 310 815 0 815 0 0 295 0 295 -245 0 -245 0 0
-130 0 -130 -215 0 -215 0 0 130 0 130 -650 0 -650 0 0 -805z"/>
<path d="M7170 5975 l0 -295 424 0 424 0 6 -72 c10 -107 6 -189 -12 -218 -14
-22 -384 -490 -482 -610 -20 -25 -96 -118 -168 -208 l-131 -163 48 -72 c26
-40 109 -166 186 -282 76 -115 140 -219 142 -230 3 -14 -30 -62 -104 -155 -60
-74 -336 -420 -616 -768 -279 -348 -507 -635 -507 -637 0 -3 486 -5 1080 -5
l1080 0 0 180 0 180 130 0 130 0 0 -310 0 -310 -850 0 -850 0 0 -295 0 -295
1145 0 1145 0 0 805 0 805 -630 0 -630 0 0 -170 c0 -128 -3 -172 -13 -175 -6
-3 -167 -4 -355 -3 l-344 3 164 205 c90 113 239 300 332 415 93 116 173 215
178 222 6 7 -57 110 -178 295 -247 373 -277 421 -277 433 0 6 63 89 140 185
77 96 267 335 423 530 156 195 296 370 312 388 l28 33 0 149 0 150 130 0 130
0 0 -192 0 -193 -391 -490 c-214 -269 -410 -515 -435 -545 -24 -30 -44 -60
-44 -66 0 -9 290 -457 310 -477 7 -8 148 166 735 903 142 179 294 369 337 423
l78 98 0 564 0 565 -1110 0 -1110 0 0 -295z"/>
<path d="M6995 4114 c-49 -64 -94 -122 -98 -130 -7 -12 -89 -14 -536 -14
l-527 0 -535 -667 c-294 -366 -551 -689 -571 -716 l-38 -49 0 -564 0 -564
1073 2 1072 3 0 290 0 290 -387 3 -388 2 0 141 0 141 33 41 c19 23 153 191
298 372 l264 330 3 233 3 232 -83 0 -83 0 -81 -103 c-44 -56 -119 -149 -166
-207 -46 -58 -219 -274 -383 -480 -164 -206 -304 -378 -309 -382 -7 -4 -12
-68 -14 -163 l-3 -155 -130 0 -129 0 0 190 0 191 152 192 c84 106 199 251 258
324 58 73 227 285 375 472 l270 340 273 0 273 1 -3 -230 c-2 -127 -1 -230 2
-230 3 1 23 24 45 53 22 28 127 159 232 290 l193 238 -54 82 c-92 142 -208
317 -209 316 -1 0 -42 -52 -92 -115z"/>
</g>
</svg>
